<svg width="28" height="27" viewBox="0 0 28 27" fill="none" xmlns="http://www.w3.org/2000/svg">
<path d="M21.3333 1.55208C21.3333 1.29516 21.228 1.04875 21.0404 0.867074C20.8529 0.685398 20.5985 0.583334 20.3333 0.583334C20.0681 0.583334 19.8138 0.685398 19.6262 0.867074C19.4387 1.04875 19.3333 1.29516 19.3333 1.55208V6.73813C16.632 4.98404 12.844 5.60017 10.9427 8.3075L1.13733 22.2652C0.395995 23.3218 0.537328 24.7323 1.47733 25.6339C1.94181 26.0765 2.55105 26.3483 3.20013 26.4025C3.84921 26.4567 4.49749 26.29 5.03333 25.931L19.42 16.2835C20.7094 15.4254 21.5972 14.1091 21.8905 12.6205C22.1839 11.1319 21.8591 9.59127 20.9867 8.33333H26.332C26.5972 8.33333 26.8516 8.23127 27.0391 8.04959C27.2266 7.86792 27.332 7.62151 27.332 7.36458C27.332 7.10766 27.2266 6.86125 27.0391 6.67957C26.8516 6.4979 26.5972 6.39583 26.332 6.39583H22.7453L27.0387 2.23667C27.2153 2.05302 27.3115 1.81013 27.3069 1.55916C27.3023 1.30819 27.1974 1.06873 27.0142 0.891239C26.8309 0.713747 26.5838 0.612078 26.3247 0.60765C26.0656 0.603222 25.8149 0.696381 25.6253 0.867501L21.3333 5.02538V1.55208Z" fill="#333333"/>
</svg>
