<svg width="13" height="12" viewBox="0 0 13 12" fill="none" xmlns="http://www.w3.org/2000/svg">
<path d="M4.25 8.93036L6.5 6.8399L8.75 8.93036L9.625 8.1174L7.375 6.02694L9.625 3.93647L8.75 3.12352L6.5 5.21398L4.25 3.12352L3.375 3.93647L5.625 6.02694L3.375 8.1174L4.25 8.93036ZM6.5 11.8338C5.63542 11.8338 4.82292 11.6813 4.0625 11.3762C3.30208 11.0715 2.64062 10.6579 2.07813 10.1353C1.51563 9.61267 1.07042 8.99811 0.7425 8.29161C0.414167 7.58511 0.25 6.83022 0.25 6.02694C0.25 5.22366 0.414167 4.46877 0.7425 3.76227C1.07042 3.05577 1.51563 2.44121 2.07813 1.9186C2.64062 1.39598 3.30208 0.982144 4.0625 0.677091C4.82292 0.372426 5.63542 0.220093 6.5 0.220093C7.36458 0.220093 8.17708 0.372426 8.9375 0.677091C9.69792 0.982144 10.3594 1.39598 10.9219 1.9186C11.4844 2.44121 11.9296 3.05577 12.2575 3.76227C12.5858 4.46877 12.75 5.22366 12.75 6.02694C12.75 6.83022 12.5858 7.58511 12.2575 8.29161C11.9296 8.99811 11.4844 9.61267 10.9219 10.1353C10.3594 10.6579 9.69792 11.0715 8.9375 11.3762C8.17708 11.6813 7.36458 11.8338 6.5 11.8338ZM6.5 10.6724C7.89583 10.6724 9.07812 10.2224 10.0469 9.32232C11.0156 8.42226 11.5 7.3238 11.5 6.02694C11.5 4.73008 11.0156 3.63161 10.0469 2.73155C9.07812 1.83149 7.89583 1.38146 6.5 1.38146C5.10417 1.38146 3.92187 1.83149 2.95312 2.73155C1.98437 3.63161 1.5 4.73008 1.5 6.02694C1.5 7.3238 1.98437 8.42226 2.95312 9.32232C3.92187 10.2224 5.10417 10.6724 6.5 10.6724Z" fill="#333333"/>
</svg>
