<svg width="33" height="30" viewBox="0 0 33 30" fill="none" xmlns="http://www.w3.org/2000/svg">
<path d="M16.4125 25.2687L16.25 25.4312L16.0712 25.2687C8.3525 18.265 3.25 13.6337 3.25 8.9375C3.25 5.6875 5.6875 3.25 8.9375 3.25C11.44 3.25 13.8775 4.875 14.7387 7.085H17.7612C18.6225 4.875 21.06 3.25 23.5625 3.25C26.8125 3.25 29.25 5.6875 29.25 8.9375C29.25 13.6337 24.1475 18.265 16.4125 25.2687ZM23.5625 0C20.735 0 18.0212 1.31625 16.25 3.38C14.4787 1.31625 11.765 0 8.9375 0C3.9325 0 0 3.91625 0 8.9375C0 15.0637 5.525 20.085 13.8937 27.6737L16.25 29.8187L18.6062 27.6737C26.975 20.085 32.5 15.0637 32.5 8.9375C32.5 3.91625 28.5675 0 23.5625 0Z" fill="#333333"/>
</svg>
