<svg width="32" height="32" viewBox="0 0 32 32" fill="none" xmlns="http://www.w3.org/2000/svg">
<path d="M2.61502 1.48688C2.33877 1.47938 2.0194 1.55625 1.78752 1.78813C1.55565 2.02 1.47877 2.33938 1.48627 2.61563C1.4944 2.89188 1.57002 3.15563 1.68565 3.425C1.9169 3.96375 2.3169 4.5275 2.84815 5.05875C3.08065 5.29125 3.31877 5.49688 3.55877 5.67562L4.36565 4.86688C4.13127 4.705 3.88315 4.5025 3.64377 4.26313C3.19815 3.81813 2.87252 3.33938 2.72002 2.98188C2.65127 2.82188 2.62377 2.69563 2.61627 2.61688C2.6944 2.62438 2.82127 2.65188 2.98127 2.72063C3.33815 2.87375 3.8169 3.19938 4.2619 3.64438C4.50127 3.88313 4.7044 4.13125 4.86627 4.36563L5.67315 3.5575C5.4944 3.31813 5.2894 3.08063 5.05752 2.84875C4.52627 2.3175 3.96315 1.9175 3.4244 1.68625C3.15502 1.57125 2.89127 1.49438 2.61502 1.48688ZM6.42502 4.39563L4.3944 6.43125L13.5 15.5312L15.5313 13.5L6.42502 4.39563ZM16.4938 14.125L15.45 15.1687C16.9625 16.4687 18.8625 18.2437 20.8813 20.2625C23.1188 22.5 25.0625 24.6 26.3875 26.1812C26.725 26.5812 27.0188 26.9437 27.2688 27.2687C26.9438 27.0187 26.5813 26.725 26.1813 26.3937C24.6 25.0625 22.5 23.1187 20.2625 20.8812C18.2438 18.8625 16.4688 16.9625 15.1688 15.45L14.125 16.4937C15.6188 18.7625 16.5938 21.3125 17.5813 23.6187C18.6438 26.1125 19.725 28.3625 21.6938 29.5375L21.7125 29.55L21.7313 29.5625C24.6938 31.0375 27.4438 30.7187 29.0625 29.1312C29.075 29.125 29.0875 29.1125 29.1 29.1C29.1125 29.0875 29.125 29.075 29.1313 29.0625C30.7188 27.4437 31.0375 24.6937 29.5625 21.7375C28.7 20.0187 26.4688 19 23.8938 17.85C21.5063 16.7812 18.7875 15.6437 16.4938 14.125ZM19.6125 17.1437C20.925 17.775 22.2313 18.3375 23.4313 18.875C25.9875 20.0187 28 21.125 28.55 22.2375C28.7563 22.6562 28.925 23.0562 29.05 23.45C27.8438 23.1562 26.0438 22.2187 23.9063 20.65C22.6063 19.6937 21.1688 18.5187 19.6125 17.1437ZM17.0188 19.475C18.4438 21.0812 19.6688 22.5687 20.65 23.9062C22.2188 26.05 23.1563 27.85 23.45 29.0562C23.0625 28.9312 22.6625 28.7687 22.2563 28.5625C20.7 27.6187 19.6625 25.625 18.6125 23.175C18.1125 22.0062 17.6063 20.75 17.0188 19.475ZM24.6438 22.5375C26.4813 23.7625 28.0313 24.5062 29.3375 24.6437C29.5063 25.8 29.3125 26.7937 28.8688 27.5687C28.85 27.5375 28.8313 27.5125 28.8125 27.4812C28.4625 26.95 27.9313 26.2687 27.2563 25.4625C26.5375 24.6125 25.65 23.6187 24.6438 22.5375ZM22.5438 24.65C23.6188 25.6562 24.6125 26.5375 25.4625 27.2562C26.2688 27.9312 26.95 28.4625 27.4813 28.8125C27.5125 28.8312 27.5375 28.85 27.5688 28.8687C26.7938 29.3125 25.8 29.5062 24.6438 29.3375C24.5125 28.0375 23.7688 26.4875 22.5438 24.65Z" fill="#333333"/>
</svg>
